<svg width="224" height="187" viewBox="0 0 224 187" fill="none" xmlns="http://www.w3.org/2000/svg">
<g filter="url(#filter0_d_1_282)">
<path d="M111.202 124.438C113.888 126.972 116.702 129.594 119.631 132.323L126.769 139L133.907 132.323C159.261 108.699 176 93.0686 176 73.9977C176 60.3232 166.882 49.2811 154.447 46.7314C155.655 50.5161 156.308 54.5786 156.308 58.822C156.308 71.6833 150.577 82.5853 142.547 92.6801C134.7 102.543 123.68 112.812 111.341 124.308L111.337 124.312L111.202 124.438Z" fill="url(#paint0_linear_1_282)" shape-rendering="optimizeQuality"/>
<path fill-rule="evenodd" clip-rule="evenodd" d="M90.0923 117.147L97.2308 123.824L104.369 117.147C129.723 93.5237 146.462 77.8928 146.462 58.822C146.462 43.1911 134.548 31 119.385 31C110.818 31 102.597 35.0974 97.2308 41.5218C91.8646 35.0974 83.6431 31 75.0769 31C59.9138 31 48 43.1911 48 58.822C48 77.8928 64.7385 93.5237 90.0923 117.147ZM98.5895 86.4822C98.5895 87.3902 97.8732 88.1262 96.9895 88.1262H94.6215C93.7379 88.1262 93.0215 87.3902 93.0215 86.4822C93.0215 80.8925 96.5415 77.8675 99.9975 75.1055C103.134 72.6066 106.014 70.1734 106.014 65.8332C106.014 60.7696 102.75 57.0212 97.5015 57.0212C93.4877 57.0212 90.2805 59.5908 89.129 63.3482C88.614 65.0283 87.2798 66.4908 85.5655 66.4908C83.8512 66.4908 82.4266 65.0488 82.7595 63.3209C84.1283 56.2172 90.0707 51.2342 97.6295 51.2342C106.718 51.2342 112.35 57.1527 112.35 65.5044C112.35 72.4093 107.998 75.7631 104.286 78.5251C100.894 81.024 98.5895 83.1284 98.5895 86.4822ZM100.638 95.8861C100.638 98.385 98.5255 100.555 96.0935 100.555C93.5335 100.555 91.4855 98.4508 91.4855 95.8861C91.4855 93.3214 93.5335 91.217 96.0935 91.217C98.5255 91.217 100.638 93.3871 100.638 95.8861Z" fill="url(#paint1_linear_1_282)" shape-rendering="optimizeQuality"/>
<path d="M119.973 131.958L119.972 131.957C117.183 129.359 114.501 126.859 111.933 124.44C124.162 113.046 135.117 102.823 142.938 92.9914L142.547 92.6801L142.938 92.9914C151.002 82.8537 156.808 71.8435 156.808 58.822C156.808 54.834 156.238 51.0022 155.177 47.4055C166.946 50.2178 175.5 60.8598 175.5 73.9977C175.5 83.3731 171.39 91.9402 164.07 101.142C156.745 110.351 146.253 120.136 133.567 131.957L133.566 131.958L126.769 138.315L119.973 131.958ZM90.4339 116.782L90.4332 116.781C77.7466 104.961 67.2553 95.175 59.9298 85.9661C52.6101 76.7646 48.5 68.1974 48.5 58.822C48.5 43.455 60.2021 31.5 75.0769 31.5C83.4868 31.5 91.5706 35.5253 96.847 41.8423L97.2308 42.3017L97.6145 41.8423C102.891 35.5253 110.975 31.5 119.385 31.5C134.259 31.5 145.962 43.455 145.962 58.822C145.962 68.1974 141.851 76.7646 134.532 85.9661C127.206 95.175 116.715 104.961 104.028 116.781L104.028 116.782L97.2308 123.14L90.4339 116.782ZM99.6859 74.7145L99.6854 74.7149C96.2347 77.4726 92.5215 80.6323 92.5215 86.4822C92.5215 87.6535 93.449 88.6262 94.6215 88.6262H96.9895C98.162 88.6262 99.0895 87.6535 99.0895 86.4822C99.0895 83.4079 101.172 81.4402 104.582 78.9277L104.584 78.9263C108.294 76.1659 112.85 72.6784 112.85 65.5044C112.85 61.2139 111.401 57.5123 108.75 54.8825C106.098 52.2522 102.285 50.7342 97.6295 50.7342C89.8339 50.7342 83.6833 55.8845 82.2686 63.2263C81.8661 65.315 83.5928 66.9908 85.5655 66.9908C87.5893 66.9908 89.0586 65.2842 89.607 63.4947C90.6987 59.9326 93.7225 57.5212 97.5015 57.5212C100 57.5212 101.992 58.4103 103.361 59.8703C104.733 61.3342 105.514 63.4086 105.514 65.8332C105.514 69.9044 102.843 72.1992 99.6859 74.7145ZM96.0935 101.055C98.8144 101.055 101.138 98.6483 101.138 95.8861C101.138 93.1239 98.8144 90.717 96.0935 90.717C93.2492 90.717 90.9855 93.0535 90.9855 95.8861C90.9855 98.7186 93.2492 101.055 96.0935 101.055Z" stroke="#FFF2F5" stroke-opacity="0.24" shape-rendering="optimizeQuality"/>
</g>
<defs>
<filter id="filter0_d_1_282" x="0" y="-17" width="224" height="204" filterUnits="userSpaceOnUse" color-interpolation-filters="sRGB">
<feFlood flood-opacity="0" result="BackgroundImageFix"/>
<feColorMatrix in="SourceAlpha" type="matrix" values="0 0 0 0 0 0 0 0 0 0 0 0 0 0 0 0 0 0 127 0" result="hardAlpha"/>
<feOffset/>
<feGaussianBlur stdDeviation="24"/>
<feComposite in2="hardAlpha" operator="out"/>
<feColorMatrix type="matrix" values="0 0 0 0 1 0 0 0 0 0.85 0 0 0 0 0.885 0 0 0 0.24 0"/>
<feBlend mode="normal" in2="BackgroundImageFix" result="effect1_dropShadow_1_282"/>
<feBlend mode="normal" in="SourceGraphic" in2="effect1_dropShadow_1_282" result="shape"/>
</filter>
<linearGradient id="paint0_linear_1_282" x1="88" y1="40.5294" x2="111.668" y2="139.08" gradientUnits="userSpaceOnUse">
<stop stop-color="#F14784"/>
<stop offset="0.462802" stop-color="#DD3B61"/>
<stop offset="1" stop-color="#B83050" stop-opacity="0.53"/>
</linearGradient>
<linearGradient id="paint1_linear_1_282" x1="88" y1="40.5294" x2="111.668" y2="139.08" gradientUnits="userSpaceOnUse">
<stop stop-color="#F14784"/>
<stop offset="0.462802" stop-color="#DD3B61"/>
<stop offset="1" stop-color="#B83050" stop-opacity="0.53"/>
</linearGradient>
</defs>
</svg>
