<svg width="156" height="25" viewBox="0 0 156 25" fill="none" xmlns="http://www.w3.org/2000/svg">
<path d="M0.448 8.192V11.456H2.72V24H6.592V11.456H10.368V8.192H6.592V6.272C6.592 4.704 7.072 3.68 9.056 3.68H10.432V0.351999C9.76 0.223999 9.024 0.191999 8.416 0.191999C4.992 0.191999 2.72 1.984 2.72 6.272V8.192H0.448ZM15.5158 24V0.191999H11.6438V24H15.5158ZM23.003 5.92C24.155 5.92 25.147 4.96 25.147 3.776C25.147 2.624 24.155 1.632 23.003 1.632C21.851 1.632 20.891 2.624 20.891 3.776C20.891 4.96 21.819 5.92 23.003 5.92ZM28.699 5.92C29.851 5.92 30.843 4.96 30.843 3.776C30.843 2.624 29.851 1.632 28.699 1.632C27.547 1.632 26.587 2.624 26.587 3.776C26.587 4.96 27.515 5.92 28.699 5.92ZM17.403 16.064C17.403 20.992 20.955 24.384 25.851 24.384C30.747 24.384 34.299 20.992 34.299 16.064C34.299 11.136 30.747 7.744 25.851 7.744C20.955 7.744 17.403 11.136 17.403 16.064ZM21.307 16.064C21.307 13.184 23.163 11.232 25.851 11.232C28.539 11.232 30.395 13.184 30.395 16.064C30.395 18.944 28.539 20.896 25.851 20.896C23.163 20.896 21.307 18.944 21.307 16.064ZM46.0335 8.128C45.3935 7.968 44.8495 7.904 44.3055 7.904C42.1935 7.904 40.6895 8.96 40.0175 10.528L39.7935 8.224H36.1135V24H40.0175V16.32C40.0175 13.248 41.7775 11.744 44.5935 11.744H46.0335V8.128ZM53.397 24V11.456H56.469V8.192H53.397V3.264H49.493V8.192H46.453V11.456H49.493V24H53.397Z" fill="#21040B"/>
<path d="M56.4 19.2C56.4 22.304 58.896 24.416 62.832 24.416C66.736 24.416 69.456 22.432 69.456 19.232C69.456 16.8 68.112 15.584 65.456 14.976L62.608 14.304C61.264 13.984 60.56 13.408 60.56 12.512C60.56 11.328 61.456 10.624 62.992 10.624C64.496 10.624 65.392 11.488 65.424 12.832H69.136C69.104 9.76 66.704 7.712 63.152 7.712C59.504 7.712 56.88 9.568 56.88 12.672C56.88 15.2 58.256 16.544 61.104 17.184L63.952 17.856C65.36 18.176 65.776 18.752 65.776 19.552C65.776 20.704 64.784 21.44 62.96 21.44C61.168 21.44 60.144 20.576 60.112 19.2H56.4ZM70.2205 16.064C70.2205 20.992 73.7725 24.384 78.6685 24.384C83.5645 24.384 87.1165 20.992 87.1165 16.064C87.1165 11.136 83.5645 7.744 78.6685 7.744C73.7725 7.744 70.2205 11.136 70.2205 16.064ZM74.1245 16.064C74.1245 13.184 75.9805 11.232 78.6685 11.232C81.3565 11.232 83.2125 13.184 83.2125 16.064C83.2125 18.944 81.3565 20.896 78.6685 20.896C75.9805 20.896 74.1245 18.944 74.1245 16.064ZM98.851 8.128C98.211 7.968 97.667 7.904 97.123 7.904C95.011 7.904 93.507 8.96 92.835 10.528L92.611 8.224H88.931V24H92.835V16.32C92.835 13.248 94.595 11.744 97.411 11.744H98.851V8.128ZM110.934 8.192V16.48C110.934 19.488 109.75 20.928 107.286 20.928C105.11 20.928 103.926 19.712 103.926 16.704V8.192H100.022V18.08C100.022 21.952 102.166 24.416 105.814 24.416C107.926 24.416 109.974 23.392 110.934 21.888L111.222 24H114.838V8.192H110.934ZM121.526 24V0.191999H117.654V24H121.526ZM129.045 24.416C131.509 24.416 133.653 23.296 134.325 21.664L134.613 24H138.037V14.4C138.037 10.016 135.413 7.712 131.157 7.712C126.869 7.712 124.053 9.952 124.053 13.376H127.381C127.381 11.712 128.661 10.752 130.965 10.752C132.949 10.752 134.229 11.616 134.229 13.76V14.112L129.493 14.464C125.749 14.752 123.637 16.576 123.637 19.488C123.637 22.464 125.685 24.416 129.045 24.416ZM130.325 21.472C128.565 21.472 127.605 20.768 127.605 19.328C127.605 18.048 128.533 17.248 130.965 17.024L134.261 16.768V17.6C134.261 20.032 132.725 21.472 130.325 21.472ZM150.512 8.128C149.872 7.968 149.328 7.904 148.784 7.904C146.672 7.904 145.168 8.96 144.496 10.528L144.272 8.224H140.592V24H144.496V16.32C144.496 13.248 146.256 11.744 149.072 11.744H150.512V8.128ZM151.875 24H155.779V8.192H151.875V24Z" fill="#B83051"/>
</svg>
